<svg width="33" height="33" viewBox="0 0 33 33" fill="none" xmlns="http://www.w3.org/2000/svg">
<path id="Vector" d="M16.5366 0C7.22008 0 0 6.80926 0 16.0065C0 20.817 1.97667 24.9742 5.19417 27.8458C5.74972 28.3455 5.63528 28.635 5.72976 31.7202C5.7372 31.9363 5.7974 32.1473 5.9051 32.3348C6.01281 32.5223 6.16476 32.6806 6.34769 32.7959C6.53062 32.9112 6.73898 32.98 6.95459 32.9962C7.1702 33.0125 7.38652 32.9758 7.58468 32.8892C11.1049 31.339 11.1501 31.2165 11.7469 31.3789C21.9457 34.186 33 27.6589 33 16.0065C33 6.80926 25.8538 0 16.5366 0ZM26.4659 12.3177L21.609 20.0073C21.4256 20.2964 21.1845 20.5446 20.9007 20.7362C20.6169 20.9278 20.2966 21.0587 19.9599 21.1207C19.6231 21.1827 19.2772 21.1745 18.9438 21.0966C18.6104 21.0187 18.2966 20.8728 18.0223 20.668L14.1581 17.7757C13.9853 17.6461 13.7752 17.5761 13.5593 17.5761C13.3433 17.5761 13.1332 17.6461 12.9605 17.7757L7.74635 21.7305C7.05042 22.2582 6.13893 21.4245 6.60798 20.6879L11.4648 12.9984C11.6482 12.7092 11.8893 12.461 12.1731 12.2693C12.4569 12.0776 12.7772 11.9467 13.1139 11.8847C13.4507 11.8226 13.7966 11.8309 14.1301 11.9088C14.4635 11.9868 14.7772 12.1328 15.0516 12.3377L18.9145 15.2293C19.0872 15.3589 19.2973 15.429 19.5132 15.429C19.7292 15.429 19.9393 15.3589 20.112 15.2293L25.3288 11.2785C26.0234 10.7475 26.9349 11.5805 26.4659 12.3177Z" fill="white"/>
</svg>
