<svg width="65" height="41" viewBox="0 0 65 41" fill="none" xmlns="http://www.w3.org/2000/svg">
<path d="M21.2708 33.3124C21.4592 34.0077 21.6712 34.7017 21.9139 35.3829C18.0443 33.5466 14.5321 30.7495 11.5918 27.28C6.5872 21.3748 3.41609 13.7135 3.04206 6.09579C9.83982 2.71761 12.864 3.53987 14.3766 4.77862C15.363 5.58646 16.2364 6.9427 16.9724 8.98785C17.7035 11.0193 18.2136 13.4858 18.6338 16.2564C18.9102 18.0791 19.1331 19.9214 19.3611 21.8054C19.4831 22.8134 19.6065 23.8334 19.7403 24.8688C20.1138 27.7576 20.5609 30.6918 21.2708 33.3124ZM42.4578 35.5893C42.7138 34.8983 42.9377 34.1935 43.137 33.4873C43.8724 30.8804 44.3489 27.9555 44.7528 25.0763C44.8933 24.0745 45.0242 23.0861 45.1535 22.1089C45.4062 20.2004 45.6532 18.3342 45.9558 16.4928C46.4093 13.7329 46.9516 11.2801 47.7121 9.26633C48.4772 7.24054 49.3734 5.90317 50.3799 5.11269C51.9423 3.88557 55.0441 3.12242 61.8951 6.62053C61.3858 14.226 58.0831 21.8254 52.9798 27.6393C49.9642 31.0749 46.3826 33.8213 42.4578 35.5893Z" stroke="url(#paint0_linear_15_29)" stroke-width="6"/>
<defs>
<linearGradient id="paint0_linear_15_29" x1="60.4922" y1="44.8634" x2="23.3805" y2="-7.93994" gradientUnits="userSpaceOnUse">
<stop stop-color="#C31414"/>
<stop offset="1" stop-color="#9400FF"/>
</linearGradient>
</defs>
</svg>